<?xml version="1.0" standalone="no"?><!DOCTYPE svg PUBLIC "-//W3C//DTD SVG 1.1//EN" "http://www.w3.org/Graphics/SVG/1.1/DTD/svg11.dtd"><svg t="1614820893267" class="icon" viewBox="0 0 1024 1024" version="1.1" xmlns="http://www.w3.org/2000/svg" p-id="2180" xmlns:xlink="http://www.w3.org/1999/xlink" width="200" height="200"><defs><style type="text/css"></style></defs><path d="M256 352a32 32 0 0 1-32-32V192a32 32 0 0 1 32-32h608a32 32 0 0 1 32 32v128a32 32 0 0 1-32 32z m32-64h544V224H288z" p-id="2181"></path><path d="M192 288h96a32 32 0 0 1 0 64H160a32 32 0 0 1-32-32V160a32 32 0 0 1 64 0zM256 640a32 32 0 0 1-32-32v-128a32 32 0 0 1 32-32h608a32 32 0 0 1 32 32v128a32 32 0 0 1-32 32z m32-64h544v-64H288z" p-id="2182"></path><path d="M192 576h96a32 32 0 0 1 0 64H160a32 32 0 0 1-32-32v-160a32 32 0 0 1 64 0zM256 928a32 32 0 0 1-32-32v-128a32 32 0 0 1 32-32h608a32 32 0 0 1 32 32v128a32 32 0 0 1-32 32z m32-64h544v-64H288z" p-id="2183"></path><path d="M192 864h96a32 32 0 0 1 0 64H160a32 32 0 0 1-32-32v-160a32 32 0 0 1 64 0z" p-id="2184"></path></svg>