<?xml version="1.0" standalone="no"?><!DOCTYPE svg PUBLIC "-//W3C//DTD SVG 1.1//EN" "http://www.w3.org/Graphics/SVG/1.1/DTD/svg11.dtd"><svg t="1597045856792" class="icon" viewBox="0 0 1027 1024" version="1.1" xmlns="http://www.w3.org/2000/svg" p-id="2196" xmlns:xlink="http://www.w3.org/1999/xlink" width="200.5859375" height="200"><defs><style type="text/css"></style></defs><path d="M512.004382 71.789679c59.425901 0 117.057059 11.665823 171.29815 34.598636 52.446349 22.135151 99.508471 53.941967 139.989873 94.323662 40.481402 40.481402 72.18851 87.543525 94.323661 139.989873 22.932814 54.241091 34.598637 111.872249 34.598637 171.29815 0 59.425901-11.665823 117.057059-34.598637 171.29815-22.135151 52.446349-53.941967 99.508471-94.323661 139.989873-40.481402 40.481402-87.543525 72.18851-139.989873 94.323662-54.241091 22.932814-111.872249 34.598637-171.29815 34.598636s-117.057059-11.665823-171.29815-34.598636c-52.446349-22.135151-99.508471-53.941967-139.989874-94.323662s-72.18851-87.543525-94.323661-139.989873c-22.932814-54.241091-34.598637-111.872249-34.598637-171.29815 0-59.425901 11.665823-117.057059 34.598637-171.29815 22.135151-52.446349 53.941967-99.508471 94.323661-139.989873s87.543525-72.18851 139.989874-94.323662c54.241091-22.932814 111.872249-34.598637 171.29815-34.598636m0-71.789679C229.232814 0 0.004382 229.228432 0.004382 512s229.228432 512 512 512 512-229.228432 512-512S794.775949 0 512.004382 0z" p-id="2197"></path><path d="M460.953944 694.565141c-9.472249 0-18.645375-3.7889-25.425512-10.469328L285.56777 534.035443c-14.058812-14.058812-14.058812-36.79221 0-50.751314s36.79221-14.058812 50.751315 0l124.634859 124.634858 267.915092-267.915092c14.058812-14.058812 36.79221-14.058812 50.751315 0s14.058812 36.79221 0 50.751314L486.379455 683.996105c-6.780136 6.780136-15.953262 10.569036-25.425511 10.569036z" p-id="2198"></path></svg>