<?xml version="1.0" standalone="no"?><!DOCTYPE svg PUBLIC "-//W3C//DTD SVG 1.1//EN" "http://www.w3.org/Graphics/SVG/1.1/DTD/svg11.dtd"><svg class="icon" width="200px" height="200.00px" viewBox="0 0 1024 1024" version="1.1" xmlns="http://www.w3.org/2000/svg"><path  d="M893.23 233.47c19.7 18.84 31.27 42.52 34.76 70.9v517.77c-1.14 31.31-11.89 56.71-32.16 76.12-20.27 19.41-44.87 29.4-73.85 30.04H204.94c-31.27-1.15-56.63-11.9-76.02-32.2-19.39-20.3-29.43-44.94-30-73.96V204.32c1.14-31.32 11.89-56.71 32.16-76.12 20.27-19.41 44.88-29.41 73.86-30.04h205.93c14.49 0.57 28.79 4.52 43.03 11.78 14.17 7.25 25.61 16.42 34.32 27.43l33.88 39.14c5.21 8.72 11.12 15.53 17.8 20.43 6.67 4.97 15.51 7.39 26.5 7.39h250.3c31.34 0.56 56.82 10.3 76.53 29.14z m-185.8 308.05c-5.75-14.78-18.29-21.21-37.85-19.21h-77.62V406.15c0-26.23-13.13-39.38-39.33-39.38h-76.74c-10.11 0.67-19.04 4.88-26.71 12.63-7.75 7.76-11.95 16.7-12.62 26.75V522.3h-83.75c-6.72 0-12.99 1.55-18.67 4.58-5.75 3.03-10.26 7.91-13.65 14.63-3.39 6.72-4.72 13.3-4.06 19.72 0.66 6.43 4.06 12.64 10.11 18.69L488 748.61c3.39 3.4 7.08 6.21 11.07 8.57 4.06 2.36 9.07 3.91 15.13 4.58 6.05 2.73 11.07 3.03 15.13 1.04 4.06-2 7.75-4.73 11.07-8.06L701.82 580c9.44-10.85 11.29-23.71 5.61-38.48z" /></svg>