<?xml version="1.0" standalone="no"?><!DOCTYPE svg PUBLIC "-//W3C//DTD SVG 1.1//EN" "http://www.w3.org/Graphics/SVG/1.1/DTD/svg11.dtd"><svg t="1594794964507" class="icon" viewBox="0 0 1024 1024" version="1.1" xmlns="http://www.w3.org/2000/svg" p-id="1404" xmlns:xlink="http://www.w3.org/1999/xlink" width="200" height="200"><defs><style type="text/css"></style></defs><path d="M694.449355 512.196475c0.773619-0.01228 1.50119-0.196475 2.278903-0.196475l-29.167297 0 0 1.369184c-20.720927 2.38942-40.416502 7.916297-58.580187 16.036231l91.406826 173.217087 154.942885 81.556481c16.506952-26.779923 26.126031-57.837266 26.126031-91.088578C881.456516 594.394568 798.084691 514.294252 694.449355 512.196475z" p-id="1405"></path><path d="M706.45069 512l-9.722432 0c3.282766 0 6.482645 0.323365 9.722432 0.490164L706.45069 512z" p-id="1406"></path><path d="M696.728258 434.219519c-144.977929 0-262.508739 117.529787-262.508739 262.508739 0 61.975517 21.60404 118.832456 57.520041 163.739225l8.153704 9.5454c48.105624 54.597479 118.349455 89.224114 196.834994 89.224114 144.978952 0 262.508739-117.529787 262.508739-262.508739S841.707211 434.219519 696.728258 434.219519zM861.397668 847.647503l-27.499307-27.499307c-8.705266 9.668197-18.385742 18.405185-28.938076 26.060539l27.754111 27.754111c-35.288714 27.116591-78.822207 43.848671-126.262682 45.89426l0-38.890752c-3.239787 0.166799-6.439666 0.490164-9.722432 0.490164-9.949606 0-19.643386-1.006933-29.167297-2.52245l0 39.294958c-46.676066-6.093788-88.727811-26.548656-121.751948-56.83238l27.499307-27.499307c-9.668197-8.705266-18.405185-18.384719-26.060539-28.938076l-27.754111 27.754111c-23.367197-30.410614-39.056528-66.922179-44.26618-106.817818l39.293935 0c-1.514493-9.523911-2.52245-19.21769-2.52245-29.167297 0-3.282766 0.323365-6.482645 0.490164-9.722432l-38.890752 0c2.045589-47.440475 18.778692-90.973968 45.89426-126.262682l27.754111 27.754111c7.655354-10.553357 16.393365-20.23281 26.060539-28.938076l-27.499307-27.499307c39.794331-36.492122 92.669586-58.9496 150.919245-58.9496 123.501802 0 223.61901 100.117209 223.61901 223.61901C920.347269 754.977917 897.889791 807.853172 861.397668 847.647503z" p-id="1407"></path><path d="M356.439038 803.676036l46.89403 0c-5.063319-21.902846-8.003278-97.225345-8.003278-97.225345L123.097596 706.45069c-10.739599 0-19.444864-8.705266-19.444864-19.444864L103.652731 123.097596c0-10.739599 8.705266-19.444864 19.444864-19.444864l719.469192 0c10.739599 0 19.444864 8.705266 19.444864 19.444864l0 341.187683c13.847379 9.104355 26.76048 19.435655 38.889729 30.633694L900.901381 103.652731c0-21.479197-17.411555-38.890752-38.889729-38.890752L103.652731 64.761979c-21.479197 0-38.890752 17.411555-38.890752 38.890752l0 602.797959c0 21.479197 17.411555 38.890752 38.890752 38.890752l252.786307 0L356.439038 803.676036z" p-id="1408"></path><path d="M239.768829 842.566788 239.768829 842.566788c-11.272741 4.034896-19.444864 16.506952-19.444864 29.167297 0 12.660344 8.172123 25.1324 19.444864 29.167297l0 0 213.896578 0-38.889729-58.335616L239.768829 842.565764z" p-id="1409"></path><path d="M531.444864 239.768829 473.109248 239.768829 367.813087 465.405799 298.103422 298.103422 280.154631 316.053236 279.122115 314.847781 143.006018 431.519014 180.969655 475.810776 280.585443 390.425084 336.994174 531.444864 395.328767 531.444864 507.131109 291.871487 587.079976 414.31212 588.558653 412.944983 589.780481 414.774655 767.140934 239.700267 723.540927 200.946638 596.217077 330.449108Z" p-id="1410"></path></svg>