<?xml version="1.0" standalone="no"?><!DOCTYPE svg PUBLIC "-//W3C//DTD SVG 1.1//EN" "http://www.w3.org/Graphics/SVG/1.1/DTD/svg11.dtd"><svg t="1596786671535" class="icon" viewBox="0 0 1024 1024" version="1.1" xmlns="http://www.w3.org/2000/svg" p-id="1673" xmlns:xlink="http://www.w3.org/1999/xlink" width="200" height="200"><defs><style type="text/css"></style></defs><path d="M820.5 779.9c-24.2 25.8-63.4 25.8-87.5 0-48.3-51.6-126.7-51.6-175.1 0-24.2 25.8-63.4 25.8-87.5 0-48.3-51.6-126.7-51.6-175.1 0l-2.8 1.7c-28.5 17.1-62.6 11.8-90.4-6.5-11.9-7.9-27.8-6.3-38.1 4.8-12.1 12.9-12.1 33.8 0 46.7 48.3 51.6 126.7 51.6 175.1 0 24.2-25.8 63.4-25.8 87.5 0 48.3 51.6 126.7 51.6 175.1 0 24.2-25.8 63.4-25.8 87.5 0 48.3 51.6 126.7 51.6 175.1 0 12.1-12.9 12.1-33.8 0-46.7-12.1-12.9-31.7-12.9-43.8 0zM820.5 606.4c-24.2 25.8-63.4 25.8-87.5 0-48.3-51.6-126.7-51.6-175.1 0-24.2 25.8-63.4 25.8-87.5 0-48.3-51.6-126.7-51.6-175.1 0l-2.8 1.7c-28.5 17.1-62.6 11.8-90.4-6.5-11.9-7.9-27.8-6.3-38.1 4.8-12.1 12.9-12.1 33.8 0 46.7 48.3 51.6 126.7 51.6 175.1 0 24.2-25.8 63.4-25.8 87.5 0 48.3 51.6 126.7 51.6 175.1 0 24.2-25.8 63.4-25.8 87.5 0 48.3 51.6 126.7 51.6 175.1 0 12.1-12.9 12.1-33.8 0-46.7-12.1-12.9-31.7-12.9-43.8 0z" p-id="1674"></path><path d="M452.6 638.6c45.8 36 129.6-26.2 168.9-17.5 4.3-12.1 7.1-24.9 7.1-38.5 0-63.1-51.3-114.5-114.5-114.5-63.1 0-114.4 51.3-114.4 114.5 0 12.6 2.5 24.6 6.3 35.9 16.9 3.6 33.4 9.8 46.6 20.1z m61.5-90c18.8 0 34 15.3 34 34s-15.3 34-34 34-34-15.3-34-34c0-18.8 15.2-34 34-34z" p-id="1675"></path><path d="M514.1 528.8c-22.2 0-40.2-18-40.2-40.2v-311c0-22.2 18-40.2 40.2-40.2 22.2 0 40.2 18 40.2 40.2v311c0 22.2-18 40.2-40.2 40.2zM649.4 189.5h84.9c11.8 0 21.4 9.6 21.4 21.4 0 11.8-9.6 21.4-21.4 21.4h-84.9c-11.8 0-21.4-9.6-21.4-21.4 0-11.8 9.6-21.4 21.4-21.4z m0 117.8h84.9c11.8 0 21.4 9.6 21.4 21.4 0 11.8-9.6 21.4-21.4 21.4h-84.9c-11.8 0-21.4-9.6-21.4-21.4 0-11.8 9.6-21.4 21.4-21.4z m0 117.7h84.9c11.8 0 21.4 9.6 21.4 21.4 0 11.8-9.6 21.4-21.4 21.4h-84.9c-11.8 0-21.4-9.6-21.4-21.4 0-11.8 9.6-21.4 21.4-21.4z" p-id="1676"></path></svg>