<?xml version="1.0" standalone="no"?><!DOCTYPE svg PUBLIC "-//W3C//DTD SVG 1.1//EN" "http://www.w3.org/Graphics/SVG/1.1/DTD/svg11.dtd"><svg t="1588836684314" class="icon" viewBox="0 0 1025 1024" version="1.1" xmlns="http://www.w3.org/2000/svg" p-id="9782" xmlns:xlink="http://www.w3.org/1999/xlink" width="200.1953125" height="200"><defs><style type="text/css"></style></defs><path d="M499.777088 544C486.977088 544 467.777088 531.2 467.777088 512L467.777088 224C467.777088 211.2 486.977088 192 499.777088 192s32 12.8 32 32L531.777088 512C531.777088 531.2 518.977088 544 499.777088 544z" p-id="9783"></path><path d="M640.577088 729.6c-12.8 0-19.2-6.4-25.6-12.8L474.177088 531.2C467.777088 518.4 467.777088 499.2 480.577088 486.4c12.8-12.8 32-6.4 44.8 6.4l140.8 185.6c12.8 12.8 6.4 32-6.4 44.8C653.377088 729.6 646.977088 729.6 640.577088 729.6z" p-id="9784"></path><path d="M32.577088 486.4" p-id="9785"></path><path d="M32.577088 518.4C19.777088 518.4 13.377088 512 6.977088 499.2-5.822912 486.4 0.577088 467.2 13.377088 454.4l166.4-96C192.577088 352 211.777088 352 224.577088 371.2 230.977088 384 224.577088 403.2 211.777088 416L51.777088 512C45.377088 512 38.977088 518.4 32.577088 518.4z" p-id="9786"></path><path d="M512.577088 1024c-185.6 0-358.4-102.4-448-262.4-6.4-12.8 0-32 12.8-44.8 12.8-6.4 32 0 44.8 12.8C198.977088 870.4 346.177088 960 512.577088 960c249.6 0 448-198.4 448-448 0-249.6-204.8-448-448-448C262.977088 64 70.977088 243.2 64.577088 480 64.577088 499.2 51.777088 512 32.577088 512c0 0 0 0 0 0C13.377088 512 0.577088 499.2 0.577088 480 13.377088 204.8 230.977088 0 512.577088 0c281.6 0 512 230.4 512 512S794.177088 1024 512.577088 1024z" p-id="9787"></path></svg>