<?xml version="1.0" standalone="no"?><!DOCTYPE svg PUBLIC "-//W3C//DTD SVG 1.1//EN" "http://www.w3.org/Graphics/SVG/1.1/DTD/svg11.dtd"><svg class="icon" width="200px" height="176.86px" viewBox="0 0 1158 1024" version="1.1" xmlns="http://www.w3.org/2000/svg"><path  d="M778.41 390.227a311.296 311.296 0 1 0 0 622.66 311.296 311.296 0 1 0 0-622.66z m148.047 147.366c-1.84 2.931-6.953 10.02-15.132 21.403-8.725 11.247-17.381 23.175-27.197 36.058a714.108 714.108 0 0 0-26.31 35.99c-7.839 11.314-12.201 18.13-13.292 19.834-2.658 4.703-1.636 7.43 3.34 8.589 5.18 1.022 10.224 1.5 14.587 1.5h47.304a14.314 14.314 0 0 1 11.588 5.588c3.34 3.818 4.976 7.43 4.976 11.247v34.013c0 6.748-4.772 9.883-13.837 9.883h-82.067a20.176 20.176 0 0 0-10.429 3c-3.272 1.704-4.703 4.77-4.703 8.383 0 3.954 0.068 7.703 0.545 11.929 0.477 4.294 0.682 7.838 0.682 10.497 0 5.657 4.84 7.634 13.973 5.657h80.635c9.27 0 13.905 4.294 13.905 12.883v31.286c0 9.202-6.748 13.973-19.562 13.973h-18.131c-7.225 0-14.723 0.341-22.698 0.614-7.77 0.681-15.132 0.818-21.54 0.818h-12.473c-8.18 0-12.473 4.703-12.473 14.314v56.506c0 4.908-3.75 7.225-11.179 7.225h-44.51c-11.928 0-18.063-5.112-18.063-15.54 0-3.886 0.341-11.861 0.818-24.266a110.286 110.286 0 0 0-0.75-25.357 21.54 21.54 0 0 0-1.43-9.27c-0.75-1.363-3.409-2.045-8.317-2.045H651.56c-12.065 0-18.063-6.066-18.063-18.471a42.874 42.874 0 0 0-1.295-10.634 29.446 29.446 0 0 1 0-13.36 62.777 62.777 0 0 1 4.226-12.814c1.908-3.612 5.521-5.044 10.974-4.158h92.973c1.908 0 2.726-2.317 2.726-7.157v-26.787c0-4.772-5.52-7.157-16.495-7.157h-80.5a58.62 58.62 0 0 1-9.746-0.614c-2.931-0.409-4.226-3.067-4.226-7.634v-17.245a75.66 75.66 0 0 0-1.432-16.904 12.133 12.133 0 0 1 4.09-14.178 26.856 26.856 0 0 1 18.2-5.657c7.429 1.022 15.54 1.159 24.47 0.681 8.656-0.477 15.54-0.681 20.107-0.681h16.495c5.521 0 7.498-1.977 5.521-5.59a853.66 853.66 0 0 1-16.495-21.198c-9.406-12.678-19.017-25.22-29.173-38.375a1386.414 1386.414 0 0 0-41.715-52.485c-6.407-10.292-5.112-18.949 4.158-25.288 4.567-2.863 9.338-6.475 14.45-10.838 5.112-4.226 10.974-8.179 17.518-11.86 9.133-5.657 17.926-0.613 26.31 15.405 2.863 3.953 8.111 10.701 16.018 20.721 7.839 9.952 15.95 20.244 24.198 31.764 7.361 10.497 15.268 20.584 23.652 30.332 7.43 9.065 11.451 14.654 12.678 16.495 1.704 3.817 5.112 6.134 10.156 7.089 5.112 0.954 8.793-0.682 10.497-4.295 0.818-1.976 4.703-7.77 11.792-17.79 6.884-9.747 14.587-20.721 22.902-33.126 8.384-12.338 16.223-23.72 23.516-34.831a554.838 554.838 0 0 0 13.974-20.517 45.668 45.668 0 0 1 11.655-12.61c3.272-1.977 8.589-1.363 16.155 1.363 4.566 1.773 9.747 4.635 15.132 8.384 5.657 3.885 9.474 6.748 11.11 8.657 10.224 10.292 13.155 19.221 8.384 26.651zM452.39 0C240.61 0 69.048 85.134 69.048 190.172s171.564 190.103 383.343 190.103c211.71 0 383.274-85.066 383.274-190.103S664.102 0 452.391 0zM573.242 429.147a739.847 739.847 0 0 1-120.851 9.748c-182.47 0-334.812-63.255-373.528-147.912a101.834 101.834 0 0 0-9.815 42.26c0 105.038 171.632 190.172 383.343 190.172 10.292 0 20.38-0.409 30.468-0.75a331.812 331.812 0 0 1 90.383-93.518zM825.1 376.731a99.516 99.516 0 0 0 10.565-43.556 99.79 99.79 0 0 0-9.883-42.192c-13.7 30.06-42.124 57.46-80.977 80.227 5.521-0.205 10.838-0.818 16.36-0.818 21.947 0 43.35 2.317 63.935 6.339zM452.39 564.108c-182.469 0-334.81-63.254-373.527-147.98a101.834 101.834 0 0 0-9.815 42.26c0 102.04 162.157 185.06 365.484 189.696 4.772-29.037 13.36-57.393 25.63-84.18l-7.771 0.204zM430.51 688.708c-172.585-4.771-314.498-66.185-351.715-147.502-6.203 13.632-9.815 27.673-9.815 42.26 0 102.584 163.93 186.014 369.029 189.763a324.587 324.587 0 0 1-7.975-71.638c0.068-4.363 0.409-8.589 0.477-12.883zM78.863 666.42a101.561 101.561 0 0 0-9.815 42.191c0 104.97 171.564 190.172 383.343 190.172 14.246 0 28.287-0.477 42.124-1.159a333.584 333.584 0 0 1-44.237-83.293c-181.516-0.614-332.835-63.596-371.415-147.912zM527.846 935.659a752.508 752.508 0 0 1-75.387 3.953c-182.47 0-334.812-63.39-373.527-148.048a101.766 101.766 0 0 0-9.816 42.193c0 105.105 171.632 190.171 383.343 190.171a715.7 715.7 0 0 0 173.267-20.653 328.404 328.404 0 0 1-97.88-67.616z" /></svg>