<?xml version="1.0" standalone="no"?><!DOCTYPE svg PUBLIC "-//W3C//DTD SVG 1.1//EN" "http://www.w3.org/Graphics/SVG/1.1/DTD/svg11.dtd"><svg t="1606870362208" class="icon" viewBox="0 0 1030 1024" version="1.1" xmlns="http://www.w3.org/2000/svg" p-id="2162" xmlns:xlink="http://www.w3.org/1999/xlink" width="201.171875" height="200"><defs><style type="text/css"></style></defs><path d="M239.104 618.496m-40.448 0a40.448 40.448 0 1 0 80.896 0 40.448 40.448 0 1 0-80.896 0Z" p-id="2163"></path><path d="M755.712 644.096H380.928c-14.336 0-25.6-11.264-25.6-25.6s11.264-25.6 25.6-25.6h374.784c14.336 0 25.6 11.264 25.6 25.6s-11.264 25.6-25.6 25.6z" p-id="2164"></path><path d="M523.776 911.36c-6.144 0-12.8-2.56-17.408-6.656L409.6 814.08H51.2c-14.336 0-25.6-11.264-25.6-25.6V450.56c0-14.336 11.264-25.6 25.6-25.6h913.92c14.336 0 25.6 11.264 25.6 25.6v337.92c0 14.336-11.264 25.6-25.6 25.6h-320.512l-103.936 91.136c-5.12 4.096-10.752 6.144-16.896 6.144zM76.8 762.88h343.04c6.656 0 12.8 2.56 17.408 6.656l87.04 81.408 93.696-81.92c4.608-4.096 10.752-6.144 16.896-6.144h304.64V476.16H76.8v286.72zM860.16 371.2H156.16c-14.336 0-25.6-11.264-25.6-25.6s11.264-25.6 25.6-25.6H860.16c14.336 0 25.6 11.264 25.6 25.6s-11.264 25.6-25.6 25.6zM724.48 265.216H291.84c-14.336 0-25.6-11.264-25.6-25.6s11.264-25.6 25.6-25.6h432.64c14.336 0 25.6 11.264 25.6 25.6s-11.264 25.6-25.6 25.6z" p-id="2165"></path></svg>