<?xml version="1.0" standalone="no"?><!DOCTYPE svg PUBLIC "-//W3C//DTD SVG 1.1//EN" "http://www.w3.org/Graphics/SVG/1.1/DTD/svg11.dtd"><svg t="1596786707886" class="icon" viewBox="0 0 1024 1024" version="1.1" xmlns="http://www.w3.org/2000/svg" p-id="1840" xmlns:xlink="http://www.w3.org/1999/xlink" width="200" height="200"><defs><style type="text/css"></style></defs><path d="M497.114 83.707c10.294-8.14 25.19-6.491 33.463 3.63l0.249 0.31 5.993 7.597C733.606 345.255 832 526.841 832 640c0 176.731-143.269 320-320 320S192 816.731 192 640c0-114.302 100.391-298.42 301.174-552.353a24 24 0 0 1 3.94-3.94z m17.609 87.353L512 167.524l-0.161 0.21c-82.61 107.199-145.421 200.348-188.356 279.089C277.951 530.329 256 595.58 256 640c0 141.385 114.615 256 256 256s256-114.615 256-256c0-43.935-21.485-108.295-66.065-190.568-42.523-78.476-104.963-171.402-187.212-278.372z" p-id="1841"></path><path d="M512 785m-40 0a40 40 0 1 0 80 0 40 40 0 1 0-80 0Z" p-id="1842"></path></svg>