<?xml version="1.0" standalone="no"?><!DOCTYPE svg PUBLIC "-//W3C//DTD SVG 1.1//EN" "http://www.w3.org/Graphics/SVG/1.1/DTD/svg11.dtd"><svg t="1592301334770" class="icon" viewBox="0 0 1024 1024" version="1.1" xmlns="http://www.w3.org/2000/svg" p-id="5299" xmlns:xlink="http://www.w3.org/1999/xlink" width="200" height="200"><defs><style type="text/css"></style></defs><path d="M389.2 929.4H102.3V101.6h826.2l-2.7 186.5-60-0.9 1.8-125.6H162.3v707.8h226.9z" p-id="5300"></path><path d="M535.5 791.5c-73.4 0-142.5-28.3-194.9-79.8-52.9-52.1-82.4-121.7-83-195.9-0.6-74.3 27.7-144.3 79.8-197.3 52.1-52.9 121.7-82.4 195.9-83h2.3c73.4 0 142.5 28.3 194.9 79.8 52.9 52.1 82.4 121.7 83 195.9 0.6 74.3-27.7 144.3-79.8 197.3-52.1 52.9-121.7 82.4-195.9 83h-2.3z m0.1-496h-1.8c-58.2 0.5-112.8 23.6-153.6 65.1-40.8 41.5-63.1 96.5-62.6 154.7 0.5 58.2 23.6 112.8 65.1 153.6 41.5 40.8 96.4 63.1 154.7 62.6 58.2-0.5 112.8-23.6 153.6-65.1 40.8-41.5 63.1-96.5 62.6-154.7S730 398.9 688.5 358.1c-41.1-40.5-95.3-62.6-152.9-62.6z" p-id="5301"></path><path d="M699.579 716.843l42.078-42.774 155.412 152.883-42.078 42.774z" p-id="5302"></path></svg>