<?xml version="1.0" standalone="no"?><!DOCTYPE svg PUBLIC "-//W3C//DTD SVG 1.1//EN" "http://www.w3.org/Graphics/SVG/1.1/DTD/svg11.dtd"><svg t="1592299241384" class="icon" viewBox="0 0 1152 1024" version="1.1" xmlns="http://www.w3.org/2000/svg" p-id="4589" xmlns:xlink="http://www.w3.org/1999/xlink" width="225" height="200"><defs><style type="text/css"></style></defs><path d="M1065.76 345.104c11.776 77.824 1.984 153.6-24.688 226.944-32.592 89.6-83.344 168.112-147.088 239.136-57.712 64.32-123.648 117.152-200.48 156.096-60.56 30.688-124.784 47.264-193.184 41.52-57.984-4.864-110.784-26.736-160.832-54.88-53.04-29.856-100.352-67.936-142.128-111.968C100.72 740.112 31.44 622.768 6.752 482.944c-10.72-60.688-10.56-122.016 14.432-180.48C55.008 223.408 122.368 189.904 200.656 172.32 219.264 168.144 237.888 162.368 257.424 163.472c4.368 7.712 0.08 14.768-1.856 21.872-7.056 26.112-10.112 52.864-11.68 79.696-6.992 120.592-3.68 241.296-4.32 361.968-0.256 49.664 2.752 99.2 8.128 148.544 5.408 49.648 35.28 79.296 81.232 94.176 43.2 13.968 88.352 15.84 132.976 16.48 73.024 1.056 146.192 3.6 219.168-3.584 21.344-2.096 42.528-4.848 62.992-11.36 53.776-17.136 80.576-53.6 84.16-110.032 2.368-37.12 3.392-74.32 5.6-111.44 5.44-18.4 2.048-37.296 2.976-55.936-0.256-4.368 0.016-8.736 0.256-13.088-0.592-14.048 5.184-25.184 15.536-34.368 68.416-60.688 130.512-127.84 195.904-191.616 4.8-4.688 9.248-10.496 17.28-9.664" p-id="4590"></path><path d="M841.84 578.064l-0.016 12.576c-4.176 19.44 1.472 39.408-3.104 58.832 2.048 41.472-1.296 82.848-5.376 123.92-6.304 63.36-47.04 101.664-116.704 111.008-96.768 12.992-194.016 10.384-291.216 5.696-26.128-1.248-52.192-2.592-77.888-8.736-75.904-18.128-106-54.848-109.984-132.96-6.688-131.088-5.28-262.24-3.296-393.36 0.784-51.488 0.88-103.456 11.088-154.528 2.592-12.96 7.68-24.832 12.08-37.056 26.16-43.712 69.888-54.688 115.568-61.856 7.472-1.168 15.072-1.568 22.608-2.32 6.976 11.584 2.208 21.984-3.2 32.336-7.184 7.472-17.024 8.608-26.352 10.784-44.192 10.24-70.864 37.168-80.048 81.888a451.52 451.52 0 0 0-8.416 65.568c-5.696 101.872-8.096 203.968-3.728 305.808 2.384 55.424-2.176 111.952 14.032 166.368 5.872 31.68 26.848 50.464 54.912 61.968 32.32 13.264 66.88 16.64 101.312 17.2 64.032 1.04 128.112 0.832 192.16 0.08 31.712-0.384 63.136-4.528 93.264-15.68 26.752-9.888 46.08-26.912 54.128-55.104 13.392-36.8 10.944-75.744 15.376-113.76 1.024-8.8-0.048-17.824 1.76-26.64 4.128-16.8 2.4-35.92 19.312-47.632 6.72-4.672 12.848-10.944 21.728-4.4" p-id="4591"></path><path d="M841.84 578.064c-19.776 4.24-31.952 15.248-32.432 36.592-0.112 4.672 0.448 9.488-3.488 13.12-4.768-2.4-4.24-8.064-7.232-13.376-15.376 15.28-29.6 29.984-44.368 44.128-5.68 5.44-10.4 13.488-20.48 11.2-5.952-13.568-17.824-20.944-29.712-28.288-3.456-5.792-4.128-13.648-11.072-16.832-19.808-9.056-11.696-18.88-1.312-29.248 31.6-31.52 63.104-63.12 94.72-94.64 7.28-7.28 14.368-14.72 20.768-22.832 12.08-9.264 22.624-20.192 33.136-31.152 55.68-55.2 110.848-110.88 166.4-166.192 6.768-6.72 12.736-14.64 22.752-17.072 22.752-19.936 23.072-20.256 44.32 1.92 11.28 11.776 31.904 21.792 30.784 36.16-0.944 12.128-19.888 22.864-30.8 34.288-2.816 2.944-5.376 6.16-8.064 9.248-72 70.928-143.936 141.92-216.16 212.608-6.16 6.032-7.12 12.848-7.76 20.368" p-id="4592"></path><path d="M1029.52 263.472c-61.28 62.816-122.448 125.76-186.72 185.568-8.896-9.04-6.576-20.64-6.464-31.36 0.704-66.16-3.568-132.096-8.064-198.048-1.312-19.264-12.592-36.48-9.376-56.208 39.968 8.256 80.432 14.512 118.24 31.04 36.192 15.84 67.28 38.4 92.384 69.008" p-id="4593"></path><path d="M398.768 97.584c16.48-25.68 37.408-47.648 59.2-68.624C470.528 16.896 487.136 11.872 504.368 8.304c70.512-14.592 132.32 9.44 172.976 68.752 4.96 7.216 7.616 16 11.328 24.064l-2.928 2.768c-16.336 6.048-32.688-0.336-49.04-0.192-68.8 0.624-137.6 0.384-206.416 0.16-10.784-0.048-22.24 2-31.52-6.272" p-id="4594"></path><path d="M818.896 163.424c17.28 29.04 17.392 61.92 18.992 93.856 3.2 63.84 6.192 127.76 4.912 191.76-9.328 11.6-17.552 24.432-32.736 29.536-8.096-6.768-6.592-16.272-6.528-24.992 0.368-67.584-3.696-134.976-8.352-202.368-4.304-62.432-28.192-92.16-88.752-108.848-7.904-2.176-16.48-2.832-22.32-9.76-5.6-10.688-1.888-20.64 2.528-30.512a10.496 10.496 0 0 1 2.048-0.96c50.8 5.28 99.408 15.168 130.208 62.288" p-id="4595"></path><path d="M686.64 102.096c5.168 9.92-2.24 18.688-2.592 28.112-7.76 8-17.552 6.16-27.072 5.6-80.16-4.832-160.304-4.32-240.448-0.256-8.864 0.448-17.968 2.224-24.864-5.728-2.048-10.592 3.68-20.208 3.92-30.528a4.08 4.08 0 0 1 3.2-1.728c82.4-0.064 164.784-0.352 247.168 0 13.568 0.064 27.12 2.96 40.688 4.528" p-id="4596"></path><path d="M1105.984 200.96c18.064 0.224 40.144 19.568 43.584 38.16 2.864 15.52-10.288 39.488-24.576 46.512-5.872 2.88-7.168-1.856-9.536-4.16C1101.616 267.968 1088.576 253.632 1074.256 240.736c-8.448-7.6-7.36-12.72 0.208-19.472C1083.968 212.832 1090.096 199.44 1105.984 200.96" p-id="4597"></path><path d="M839.312 649.472c1.696-19.616-6.976-39.536 5.376-58.832 1.12 19.696 3.744 39.456-5.376 58.832" p-id="4598"></path><path d="M391.664 129.824c74.096-5.2 148.272-6.752 222.496-3.488 23.312 1.024 46.608 2.56 69.904 3.872 11.232 2.912 22.56 5.568 33.696 8.8 52.64 15.312 80 51.792 83.584 106.624 5.056 77.6 7.904 155.216 8.72 232.96-0.848 9.28-8.64 13.6-14.24 19.28-37.968 38.432-76.128 76.64-115.152 115.872 12.848 5.808 28.432 8.16 25.488 26.816-2.976 17.376-16.928 25.28-29.6 34.304-13.152-2.624-18.128 4.48-20.112 17.488 10.4-1.168 18.752-5.6 27.584-8.112 17.12-4.48 32.88-13.76 50.992-14.8 25.408-17.76 43.44-43.488 69.088-64.416l1.808 22.752c-3.616 45.168-1.168 90.96-13.872 135.2-0.944 3.264-2.64 6.32-4 9.472-16.608 39.296-51.904 50.576-88.912 59.36-29.76 7.056-60.4 6.944-90.464 8.112-73.632 2.864-147.456 2.88-220.8-7.216-13.76-1.904-27.04-5.328-40.256-9.328-30.928-9.344-53.04-28.272-64.624-58.832-10.08-24.064-10.56-49.824-11.696-75.104-5.936-131.744-7.136-263.568-0.08-395.312 1.28-24 3.936-48.128 8.48-71.696 9.536-49.472 41.12-77.6 89.872-87.472 7.408-1.504 14.72-3.424 22.08-5.136" p-id="4599"></path><path d="M282.992 764.544c29.536 52.752 81.376 60.56 134.032 65.952 57.552 5.888 115.376 5.28 173.088 3.952a901.808 901.808 0 0 0 106.576-8.512c36.976-5.28 69.376-21.216 91.36-53.488-6.464 29.84-27.28 46.64-53.632 57.76-28.88 12.192-59.808 16.256-90.608 16.8-68.944 1.2-137.936 1.376-206.88-0.08-32.096-0.672-64.528-4.16-94.832-16.592-30.096-12.32-52.768-31.856-59.104-65.792" p-id="4600"></path><path d="M735.04 669.44c-14.976 11.36-34 12.448-50.464 20-4.064-4.784-11.232-8.08-7.952-16.432l29.536-32.448c16.752 2.496 27.296 11.2 28.864 28.88" p-id="4601"></path><path d="M526.976 60.432c-0.56-16.416 6.16-21.92 18.832-21.712 12 0.192 20.88 5.376 20.736 17.616-0.128 12.192-7.584 20.32-20.96 20.432-13.088 0.112-17.536-8.304-18.608-16.32" p-id="4602"></path><path d="M419.056 340.448c0.192-60.272 61.76-111.488 133.504-111.072 62.944 0.368 107.184 47.008 106.448 112.256-0.736 65.52-45.232 111.792-107.632 111.92-70.32 0.16-132.496-52.992-132.32-113.104" p-id="4603"></path><path d="M525.568 557.312c-40.672 0-81.36-0.368-122.032 0.208-12.24 0.16-17.328-3.264-16.992-16.304 0.288-11.712 2.656-17.392 16.08-17.312 82.048 0.528 164.096 0.544 246.144 0.048 13.568-0.08 15.584 5.808 15.904 17.392 0.352 13.12-4.896 16.384-17.072 16.208-40.672-0.56-81.344-0.208-122.032-0.24" p-id="4604"></path><path d="M499.936 685.984c-32.4 0-64.8-0.48-97.184 0.24-13.088 0.304-16.224-4.96-16.352-17.04-0.128-12.736 4.368-16.608 16.864-16.512 64.784 0.512 129.568 0.496 194.352 0.144 11.84-0.064 17.376 2.592 17.44 15.952 0.048 13.648-4.512 17.92-17.952 17.6-32.368-0.8-64.784-0.256-97.168-0.256v-0.128z" p-id="4605"></path><path d="M512.32 619.472c-35.872-0.032-71.728-0.224-107.584 0.096-10.816 0.096-18.496-0.544-18.24-14.992 0.224-12.96 6.56-14.272 16.896-14.24 73.088 0.24 146.192 0.224 219.296 0.048 10.016-0.016 16.928 0.64 17.152 13.92 0.24 14.112-6.72 15.456-17.888 15.344-36.544-0.4-73.088-0.16-109.648-0.176" p-id="4606"></path><path d="M774.544 771.552c-12.288 24.96-34.88 34.976-59.296 42.672-28.56 8.992-58.464 10.672-87.68 11.376-81.888 1.984-164.112 5.984-245.488-7.44-34-5.616-67.552-14.784-84.96-50.688 21.6 23.952 49.712 35.456 80.112 39.6 75.12 10.24 150.688 14.496 226.432 8.512 21.936-1.728 43.888-1.184 65.92-3.936 38.592-4.832 75.52-11.68 104.96-40.096" p-id="4607"></path><path d="M676.64 673.008c2.192 5.696 8.56 9.376 7.936 16.448l-34.64 11.568c4.88-35.408 8.048-38.64 26.704-28.016" p-id="4608"></path><path d="M607.008 299.424c0.448 7.072-3.424 10.24-6.752 13.616-23.664 23.968-47.312 47.936-71.152 71.712-2.768 2.768-6.352 5.584-10 6.4-6.112 1.376-48.736-35.504-48.848-41.632-0.112-6.192 3.952-9.248 9.248-7.872 4.336 1.12 8.288 4.496 11.936 7.472 27.136 22.032 27.088 22.048 52.416-3.552 15.472-15.632 30.944-31.264 46.56-46.752 3.312-3.296 6.944-7.488 12.384-4.32 2.096 1.216 3.36 3.888 4.208 4.928" p-id="4609"></path></svg>