<?xml version="1.0" standalone="no"?><!DOCTYPE svg PUBLIC "-//W3C//DTD SVG 1.1//EN" "http://www.w3.org/Graphics/SVG/1.1/DTD/svg11.dtd"><svg t="1592299281344" class="icon" viewBox="0 0 1024 1024" version="1.1" xmlns="http://www.w3.org/2000/svg" p-id="4732" xmlns:xlink="http://www.w3.org/1999/xlink" width="200" height="200"><defs><style type="text/css"></style></defs><path d="M512 512m-445 0a445 445 0 1 0 890 0 445 445 0 1 0-890 0Z" p-id="4733"></path><path d="M636.1 498.8H387.9c-8.6 0-15.5-6.7-15.5-14.9v-119c0-8.2 6.9-14.9 15.5-14.9h248.3c8.6 0 15.5 6.7 15.5 14.9V484c-0.1 8.2-7 14.8-15.6 14.8z" p-id="4734"></path><path d="M660.8 483.8l41.5 27.1 8.1 22.5h-49.6zM363.2 483.8l-41.5 27.1-8.1 22.5h49.6z" p-id="4735"></path><path d="M651.6 574.8H372.4c-9.6 0-17.5-7.4-17.5-16.5V425.9c0-9.1 7.8-16.5 17.5-16.5h279.3c9.6 0 17.5 7.4 17.5 16.5v132.3c-0.1 9.2-7.9 16.6-17.6 16.6z" p-id="4736"></path><path d="M636 525.2v33.1c0 9.1-7.4 16.5-16.5 16.5h-215c-9.1 0-16.5-7.4-16.5-16.5v-33.1c0-9.1-7.4-16.5-16.5-16.5h-41.3c-9.1 0-16.5 7.4-16.5 16.5v132.3c0 9.1 7.4 16.5 16.5 16.5H694c9.1 0 16.5-7.4 16.5-16.5V525.2c0-9.1-7.4-16.5-16.5-16.5h-41.3c-9.3-0.1-16.7 7.3-16.7 16.5zM438 459h-33.8c-4.4 0-7.9-3.5-7.9-7.9v-0.8c0-4.4 3.5-7.9 7.9-7.9H438c4.4 0 7.9 3.5 7.9 7.9v0.8c0 4.4-3.6 7.9-7.9 7.9z" p-id="4737"></path></svg>