<?xml version="1.0" standalone="no"?><!DOCTYPE svg PUBLIC "-//W3C//DTD SVG 1.1//EN" "http://www.w3.org/Graphics/SVG/1.1/DTD/svg11.dtd"><svg t="1592301424426" class="icon" viewBox="0 0 1024 1024" version="1.1" xmlns="http://www.w3.org/2000/svg" p-id="6772" xmlns:xlink="http://www.w3.org/1999/xlink" width="200" height="200"><defs><style type="text/css"></style></defs><path d="M162.133333 406.9376c0-56.558933 45.841067-102.4 102.4-102.4s102.4 45.841067 102.4 102.4c0 56.558933-45.841067 102.4-102.4 102.4S162.133333 463.496533 162.133333 406.9376zM423.822222 657.248711c0-62.839467-50.938311-113.777778-113.777778-113.777778l-91.022222 0c-62.839467 0-113.777778 50.938311-113.777778 113.777778l0 45.511111 318.577778 0L423.822222 657.248711zM668.444444 406.9376c0 56.558933 45.841067 102.4 102.4 102.4s102.4-45.841067 102.4-102.4c0-56.558933-45.841067-102.4-102.4-102.4S668.444444 350.378667 668.444444 406.9376zM816.355556 543.470933l-91.022222 0c-62.839467 0-113.777778 50.938311-113.777778 113.777778l0 45.511111 318.577778 0 0-45.511111C930.133333 594.409244 879.195022 543.470933 816.355556 543.470933zM638.350222 858.851556c-30.583467 7.691378-64.398222 11.593956-101.000533 11.593956-161.826133 0-216.632889-74.843022-219.249778-78.574933-8.772267-12.879644-26.305422-16.338489-39.298844-7.668622-13.073067 8.715378-16.600178 26.373689-7.8848 39.446756 2.821689 4.232533 71.384178 103.685689 266.433422 103.685689 48.162133 0 92.512711-6.121244 132.209778-18.136178l30.139733 48.628622 80.429511-149.959111-170.0864 5.302044L638.350222 858.851556zM394.934044 161.405156c30.583467-7.691378 64.4096-11.605333 101.000533-11.605333 161.826133 0 216.632889 74.843022 219.249778 78.574933 5.495467 8.078222 14.4384 12.447289 23.552 12.447289 5.4272 0 10.899911-1.547378 15.746844-4.778667 13.073067-8.715378 16.600178-26.373689 7.8848-39.446756-2.821689-4.232533-71.384178-103.685689-266.433422-103.685689-48.150756 0-92.501333 6.121244-132.1984 18.136178l-30.139733-48.628622-80.429511 149.959111L423.241956 207.075556 394.934044 161.405156z" p-id="6773"></path></svg>