<?xml version="1.0" standalone="no"?><!DOCTYPE svg PUBLIC "-//W3C//DTD SVG 1.1//EN" "http://www.w3.org/Graphics/SVG/1.1/DTD/svg11.dtd"><svg t="1592299044822" class="icon" viewBox="0 0 1024 1024" version="1.1" xmlns="http://www.w3.org/2000/svg" p-id="3666" xmlns:xlink="http://www.w3.org/1999/xlink" width="200" height="200"><defs><style type="text/css"></style></defs><path d="M300.714667 652.913778c41.699556 0 41.699556 65.137778 0 65.137778H227.555556c-41.699556 0.113778-41.699556-65.137778 0-65.137778h73.159111zM227.498667 457.329778h130.104889c41.699556 0 41.699556 65.194667 0 65.194666H227.555556c-41.699556 0-41.699556-65.194667 0-65.194666zM56.888889 359.537778a97.735111 97.735111 0 0 1 97.507555-97.735111h316.984889c19.342222 0 32.540444 15.246222 32.540445 32.597333a32.142222 32.142222 0 0 1-32.540445 32.597333H154.453333a33.507556 33.507556 0 0 0-32.540444 32.540445v456.419555c0.455111 17.806222 14.791111 32.085333 32.540444 32.597334h657.237334c42.666667 0 42.666667 65.194667 0 65.194666H154.396444A97.678222 97.678222 0 0 1 56.888889 815.900444V359.537778z m381.041778 228.124444c0.056889-1.024 0.568889-1.934222 1.422222-4.437333l304.867555-439.580445c10.979556-15.644444 27.648-25.827556 47.047112-28.899555 21.959111-3.470222 45.511111 2.673778 64.512 16.952889l48.355555 36.522666c19.000889 14.222222 31.971556 35.498667 35.555556 58.254223 3.185778 20.024889-1.080889 39.651556-12.003556 55.182222l-304.924444 439.523555a6.542222 6.542222 0 0 1-5.404445 2.844445l-157.354666 72.476444a28.273778 28.273778 0 0 1-28.444445-3.015111 30.606222 30.606222 0 0 1-11.719111-27.192889l18.090667-178.631111z m403.000889-291.612444l36.579555-52.110222a17.92 17.92 0 0 0 2.844445-13.084445 24.177778 24.177778 0 0 0-9.443556-15.36l-48.412444-36.408889c-9.102222-6.883556-22.471111-5.802667-28.16 2.332445l-36.067556 51.370666 82.659556 63.260445z m-120.206223-9.784889l-202.353777 293.376 83.228444 62.577778 201.841778-292.636445-82.716445-63.317333z m-230.001777 344.974222l-9.159112 90.737778 80.384-37.148445-71.224888-53.589333z" p-id="3667"></path></svg>