<?xml version="1.0" standalone="no"?><!DOCTYPE svg PUBLIC "-//W3C//DTD SVG 1.1//EN" "http://www.w3.org/Graphics/SVG/1.1/DTD/svg11.dtd"><svg t="1592299149535" class="icon" viewBox="0 0 1024 1024" version="1.1" xmlns="http://www.w3.org/2000/svg" p-id="4457" xmlns:xlink="http://www.w3.org/1999/xlink" width="200" height="200"><defs><style type="text/css"></style></defs><path d="M268.864 873.792h-102.864a16 16 0 0 1-16-16v-800a16 16 0 0 1 16-16h640a16 16 0 0 1 16 16v92.624a16 16 0 0 1-32 0V73.792h-608v768h86.864a16 16 0 0 1 0 32z" p-id="4458"></path><path d="M915.712 979.04h-640a16 16 0 0 1-16-16v-800a16 16 0 0 1 16-16h640a16 16 0 0 1 16 16v800a16 16 0 0 1-16 16z m-624-32h608v-768h-608v768z" p-id="4459"></path><path d="M787.712 358.416h-384a16 16 0 0 1 0-32h384a16 16 0 0 1 0 32zM723.712 486.416h-320a16 16 0 0 1 0-32h320a16 16 0 0 1 0 32zM659.712 614.416h-256a16 16 0 0 1 0-32h256a16 16 0 0 1 0 32zM755.712 742.416h-352a16 16 0 0 1 0-32h352a16 16 0 0 1 0 32z" p-id="4460"></path></svg>